<?xml version="1.0" encoding="UTF-8" standalone="no"?>
<!-- Created with Inkscape (http://www.inkscape.org/) -->

<svg
   width="500"
   height="100"
   viewBox="0 0 132.29166 26.458333"
   version="1.1"
   id="svg1"
   inkscape:version="1.3.2 (091e20e, 2023-11-25, custom)"
   sodipodi:docname="appname.inkscape.svg"
   xmlns:inkscape="http://www.inkscape.org/namespaces/inkscape"
   xmlns:sodipodi="http://sodipodi.sourceforge.net/DTD/sodipodi-0.dtd"
   xmlns:xlink="http://www.w3.org/1999/xlink"
   xmlns="http://www.w3.org/2000/svg"
   xmlns:svg="http://www.w3.org/2000/svg">
  <sodipodi:namedview
     id="namedview1"
     pagecolor="#ffffff"
     bordercolor="#000000"
     borderopacity="0.25"
     inkscape:showpageshadow="2"
     inkscape:pageopacity="0.0"
     inkscape:pagecheckerboard="0"
     inkscape:deskcolor="#d1d1d1"
     inkscape:document-units="mm"
     inkscape:zoom="1.4485269"
     inkscape:cx="241.2796"
     inkscape:cy="-5.1776738"
     inkscape:window-width="1920"
     inkscape:window-height="1009"
     inkscape:window-x="-8"
     inkscape:window-y="-8"
     inkscape:window-maximized="1"
     inkscape:current-layer="layer1" />
  <defs
     id="defs1">
    <linearGradient
       id="linearGradient1"
       inkscape:collect="always">
      <stop
         style="stop-color:#0086e9;stop-opacity:1;"
         offset="0"
         id="stop1" />
      <stop
         style="stop-color:#9900ff;stop-opacity:1;"
         offset="1"
         id="stop2" />
    </linearGradient>
    <linearGradient
       inkscape:collect="always"
       xlink:href="#linearGradient1"
       id="linearGradient2"
       x1="29.857316"
       y1="13.229168"
       x2="102.43435"
       y2="13.229168"
       gradientUnits="userSpaceOnUse" />
  </defs>
  <g
     inkscape:label="Layer 1"
     inkscape:groupmode="layer"
     id="layer1">
    <path
       style="font-weight:800;font-size:12.7px;font-family:'LINE Seed JP_TTF';-inkscape-font-specification:'LINE Seed JP_TTF Ultra-Bold';text-align:center;text-anchor:middle;fill:url(#linearGradient2);stroke-width:5.292;stroke-linecap:round;stroke-linejoin:round;stroke-dashoffset:3403.99"
       d="m 33.260916,18.709217 q -0.2159,0 -0.2159,-0.2286 v -7.645399 h -2.9718 q -0.2159,0 -0.2159,-0.2159 V 8.6000176 q 0,-0.2286 0.2159,-0.2286 h 8.559799 q 0.2286,0 0.2286,0.2286 v 2.0193004 q 0,0.2159 -0.2286,0.2159 h -2.9591 v 7.645399 q 0,0.2286 -0.2286,0.2286 z m 6.985002,0 q -0.2286,0 -0.2286,-0.2286 v -7.035799 q 0,-0.2159 0.2286,-0.2159 h 2.082799 q 0.2286,0 0.2286,0.2159 v 7.035799 q 0,0.2286 -0.2286,0.2286 z m 1.0414,-8.470899 q -0.5969,0 -1.0033,-0.3556004 -0.3937,-0.3556 -0.3937,-0.9525 0,-0.5969 0.3937,-0.9525 0.4064,-0.3683 1.0033,-0.3683 0.596899,0 0.990599,0.3683 0.4064,0.3556 0.4064,0.9525 0,0.5969 -0.4064,0.9525 -0.3937,0.3556004 -0.990599,0.3556004 z m 3.136906,8.470899 q -0.2286,0 -0.2286,-0.2286 v -7.035799 q 0,-0.2159 0.2286,-0.2159 h 1.778 q 0.2286,0 0.2286,0.2159 l 0.0381,0.7112 q 0.4064,-0.5461 0.9779,-0.8001 0.5842,-0.2667 1.3208,-0.2667 0.8001,0 1.3843,0.2921 0.5969,0.2921 0.9398,0.8509 0.4064,-0.5842 1.016,-0.8636 0.6223,-0.2794 1.397,-0.2794 1.3081,0 2.0066,0.7239 0.7112,0.7239 0.7112,2.0193 v 4.648199 q 0,0.2286 -0.2032,0.2286 h -2.0955 q -0.1016,0 -0.1651,-0.0635 -0.0635,-0.0635 -0.0635,-0.1651 v -3.695699 q 0,-0.7874 -0.254,-1.1303 -0.2413,-0.3429 -0.762,-0.3429 -0.5461,0 -0.8763,0.4191 -0.3175,0.4064 -0.3175,1.2319 v 3.517899 q 0,0.2286 -0.2286,0.2286 h -2.0828 q -0.2286,0 -0.2286,-0.2286 v -3.695699 q 0,-0.7874 -0.2413,-1.1303 -0.2413,-0.3429 -0.7747,-0.3429 -0.5334,0 -0.8636,0.4191 -0.3302,0.4064 -0.3302,1.2319 v 3.517899 q 0,0.2286 -0.2286,0.2286 z m 16.929107,0.1397 q -0.889,0 -1.6256,-0.2921 -0.7239,-0.2794 -1.2319,-0.7874 -0.508,-0.520699 -0.7874,-1.231899 -0.2794,-0.7112 -0.2794,-1.5748 0,-0.8636 0.2794,-1.5748 0.2794,-0.7112 0.7874,-1.2192 0.508,-0.508 1.2319,-0.7874 0.7366,-0.2921 1.6256,-0.2921 0.9398,0 1.651,0.3175 0.7112,0.3175 1.1811,0.889 0.4699,0.5588 0.6858,1.3589 0.2286,0.7874 0.1778,1.7399 -0.0254,0.2159 -0.2413,0.2159 h -4.8133 q 0.1397,0.5588 0.4826,0.8509 0.3556,0.2921 0.889,0.2921 0.8509,0 1.2319,-0.5334 0.127,-0.1397 0.3048,-0.1016 l 1.8034,0.6096 q 0.1397,0.0635 0.1397,0.1651 0,0.0508 -0.0381,0.127 -0.254,0.482599 -0.635,0.825499 -0.3683,0.3429 -0.8255,0.5588 -0.4445,0.2286 -0.9525,0.3302 -0.508,0.1143 -1.0414,0.1143 z m 1.2065,-4.622799 q -0.1016,-0.5588 -0.4191,-0.8509 -0.3175,-0.3048 -0.8255,-0.3048 -0.5334,0 -0.8763,0.2921 -0.3302,0.2921 -0.4445,0.8636 z m 6.781802,4.622799 q -1.4224,0 -2.0701,-0.8382 -0.6477,-0.850899 -0.6477,-2.476499 v -2.1336 h -0.889 q -0.2286,0 -0.2286,-0.2286 v -1.6891 q 0,-0.1016 0.0635,-0.1651 0.0635,-0.0635 0.1651,-0.0635 h 0.889 V 9.5017176 q 0,-0.2286 0.2286,-0.2286 h 2.0828 q 0.2286,0 0.2286,0.2286 v 1.7526004 h 1.4859 q 0.1016,0 0.1651,0.0635 0.0635,0.0635 0.0635,0.1651 v 1.6891 q 0,0.2286 -0.2286,0.2286 h -1.4859 v 2.3749 q 0,0.9398 0.5588,0.9398 0.2286,0 0.4064,-0.2794 0.0889,-0.0889 0.1524,-0.0889 0.0508,0 0.127,0.0381 l 1.4224,0.6096 q 0.1397,0.0635 0.1397,0.1905 0,0.0508 -0.0508,0.1524 -0.4064,0.812799 -1.1176,1.155699 -0.7112,0.3556 -1.4605,0.3556 z m 6.299196,0 q -0.7747,0 -1.4224,-0.2794 -0.635,-0.2794 -1.0922,-0.7874 -0.4572,-0.520699 -0.7112,-1.231899 -0.254,-0.7112 -0.254,-1.5875 0,-0.8763 0.254,-1.5875 0.254,-0.7112 0.7112,-1.2192 0.4572,-0.508 1.0922,-0.7874 0.6477,-0.2794 1.4224,-0.2794 0.7239,0 1.2827,0.2667 0.5588,0.2667 0.9652,0.7493 l 0.0254,-0.6604 q 0,-0.1016 0.0635,-0.1524 0.0635,-0.0635 0.1651,-0.0635 h 1.7653 q 0.2286,0 0.2286,0.2159 v 7.035799 q 0,0.2286 -0.2286,0.2286 h -1.7653 q -0.1016,0 -0.1651,-0.0635 -0.0635,-0.0635 -0.0635,-0.1651 l -0.0254,-0.6604 q -0.4064,0.4953 -0.9652,0.762 -0.5588,0.2667 -1.2827,0.2667 z m 0.6223,-2.222499 q 0.6858,0 1.1049,-0.4572 0.4318,-0.4699 0.4318,-1.2065 0,-0.7366 -0.4318,-1.1938 -0.4191,-0.4572 -1.1049,-0.4572 -0.6858,0 -1.1176,0.4572 -0.4191,0.4572 -0.4191,1.1938 0,0.7366 0.4191,1.2065 0.4318,0.4572 1.1176,0.4572 z m 10.007591,2.222499 q -0.7112,0 -1.27,-0.2667 -0.5588,-0.2667 -0.9652,-0.762 l -0.0254,0.6604 q 0,0.2286 -0.2413,0.2286 h -1.7653 q -0.2286,0 -0.2286,-0.2286 V 8.3714176 q 0,-0.2286 0.2286,-0.2286 h 2.0828 q 0.2286,0 0.2286,0.2286 v 3.4417004 q 0.7874,-0.7239 1.9558,-0.7239 0.7874,0 1.4224,0.2794 0.6477,0.2794 1.1049,0.7874 0.4572,0.508 0.6985,1.2192 0.254,0.7112 0.254,1.5875 0,0.8763 -0.254,1.5875 -0.2413,0.7112 -0.6985,1.231899 -0.4572,0.508 -1.1049,0.7874 -0.635,0.2794 -1.4224,0.2794 z m -0.6223,-2.222499 q 0.6858,0 1.1049,-0.4572 0.4318,-0.4699 0.4318,-1.2065 0,-0.7366 -0.4318,-1.1938 -0.4191,-0.4572 -1.1049,-0.4572 -0.6858,0 -1.1176,0.4572 -0.4191,0.4572 -0.4191,1.1938 0,0.7366 0.4191,1.2065 0.4318,0.4572 1.1176,0.4572 z m 5.587991,2.082799 q -0.2286,0 -0.2286,-0.2286 V 8.3714176 q 0,-0.2286 0.2286,-0.2286 h 2.0828 q 0.2286,0 0.2286,0.2286 V 18.480617 q 0,0.2286 -0.2286,0.2286 z m 7.493003,0.1397 q -0.889,0 -1.6256,-0.2921 -0.7239,-0.2794 -1.2319,-0.7874 -0.508,-0.520699 -0.7874,-1.231899 -0.2794,-0.7112 -0.2794,-1.5748 0,-0.8636 0.2794,-1.5748 0.2794,-0.7112 0.7874,-1.2192 0.508,-0.508 1.2319,-0.7874 0.7366,-0.2921 1.6256,-0.2921 0.9398,0 1.650996,0.3175 0.7112,0.3175 1.1811,0.889 0.4699,0.5588 0.6858,1.3589 0.2286,0.7874 0.1778,1.7399 -0.0254,0.2159 -0.2413,0.2159 h -4.813296 q 0.1397,0.5588 0.4826,0.8509 0.3556,0.2921 0.889,0.2921 0.8509,0 1.2319,-0.5334 0.126996,-0.1397 0.304796,-0.1016 l 1.8034,0.6096 q 0.1397,0.0635 0.1397,0.1651 0,0.0508 -0.0381,0.127 -0.254,0.482599 -0.635,0.825499 -0.3683,0.3429 -0.8255,0.5588 -0.4445,0.2286 -0.952496,0.3302 -0.508,0.1143 -1.0414,0.1143 z m 1.2065,-4.622799 q -0.1016,-0.5588 -0.4191,-0.8509 -0.3175,-0.3048 -0.8255,-0.3048 -0.5334,0 -0.8763,0.2921 -0.3302,0.2921 -0.4445,0.8636 z"
       id="text1"
       aria-label="Timetable" />
  </g>
</svg>
