<?xml version="1.0" encoding="UTF-8"?>
<!-- Created with Inkscape (http://www.inkscape.org/) -->
<svg width="500" height="100" version="1.1" viewBox="0 0 132.29 26.458" xmlns="http://www.w3.org/2000/svg" xmlns:xlink="http://www.w3.org/1999/xlink">
 <defs>
  <linearGradient id="linearGradient2" x1="29.857" x2="102.43" y1="13.229" y2="13.229" gradientUnits="userSpaceOnUse">
   <stop stop-color="#0086e9" offset="0"/>
   <stop stop-color="#90f" offset="1"/>
  </linearGradient>
 </defs>
 <path d="m33.261 18.709q-0.2159 0-0.2159-0.2286v-7.6454h-2.9718q-0.2159 0-0.2159-0.2159v-2.0193q0-0.2286 0.2159-0.2286h8.5598q0.2286 0 0.2286 0.2286v2.0193q0 0.2159-0.2286 0.2159h-2.9591v7.6454q0 0.2286-0.2286 0.2286zm6.985 0q-0.2286 0-0.2286-0.2286v-7.0358q0-0.2159 0.2286-0.2159h2.0828q0.2286 0 0.2286 0.2159v7.0358q0 0.2286-0.2286 0.2286zm1.0414-8.4709q-0.5969 0-1.0033-0.3556-0.3937-0.3556-0.3937-0.9525t0.3937-0.9525q0.4064-0.3683 1.0033-0.3683 0.5969 0 0.9906 0.3683 0.4064 0.3556 0.4064 0.9525t-0.4064 0.9525q-0.3937 0.3556-0.9906 0.3556zm3.1369 8.4709q-0.2286 0-0.2286-0.2286v-7.0358q0-0.2159 0.2286-0.2159h1.778q0.2286 0 0.2286 0.2159l0.0381 0.7112q0.4064-0.5461 0.9779-0.8001 0.5842-0.2667 1.3208-0.2667 0.8001 0 1.3843 0.2921 0.5969 0.2921 0.9398 0.8509 0.4064-0.5842 1.016-0.8636 0.6223-0.2794 1.397-0.2794 1.3081 0 2.0066 0.7239 0.7112 0.7239 0.7112 2.0193v4.6482q0 0.2286-0.2032 0.2286h-2.0955q-0.1016 0-0.1651-0.0635t-0.0635-0.1651v-3.6957q0-0.7874-0.254-1.1303-0.2413-0.3429-0.762-0.3429-0.5461 0-0.8763 0.4191-0.3175 0.4064-0.3175 1.2319v3.5179q0 0.2286-0.2286 0.2286h-2.0828q-0.2286 0-0.2286-0.2286v-3.6957q0-0.7874-0.2413-1.1303t-0.7747-0.3429-0.8636 0.4191q-0.3302 0.4064-0.3302 1.2319v3.5179q0 0.2286-0.2286 0.2286zm16.929 0.1397q-0.889 0-1.6256-0.2921-0.7239-0.2794-1.2319-0.7874-0.508-0.5207-0.7874-1.2319t-0.2794-1.5748 0.2794-1.5748 0.7874-1.2192 1.2319-0.7874q0.7366-0.2921 1.6256-0.2921 0.9398 0 1.651 0.3175t1.1811 0.889q0.4699 0.5588 0.6858 1.3589 0.2286 0.7874 0.1778 1.7399-0.0254 0.2159-0.2413 0.2159h-4.8133q0.1397 0.5588 0.4826 0.8509 0.3556 0.2921 0.889 0.2921 0.8509 0 1.2319-0.5334 0.127-0.1397 0.3048-0.1016l1.8034 0.6096q0.1397 0.0635 0.1397 0.1651 0 0.0508-0.0381 0.127-0.254 0.4826-0.635 0.8255-0.3683 0.3429-0.8255 0.5588-0.4445 0.2286-0.9525 0.3302-0.508 0.1143-1.0414 0.1143zm1.2065-4.6228q-0.1016-0.5588-0.4191-0.8509-0.3175-0.3048-0.8255-0.3048-0.5334 0-0.8763 0.2921-0.3302 0.2921-0.4445 0.8636zm6.7818 4.6228q-1.4224 0-2.0701-0.8382-0.6477-0.8509-0.6477-2.4765v-2.1336h-0.889q-0.2286 0-0.2286-0.2286v-1.6891q0-0.1016 0.0635-0.1651t0.1651-0.0635h0.889v-1.7526q0-0.2286 0.2286-0.2286h2.0828q0.2286 0 0.2286 0.2286v1.7526h1.4859q0.1016 0 0.1651 0.0635t0.0635 0.1651v1.6891q0 0.2286-0.2286 0.2286h-1.4859v2.3749q0 0.9398 0.5588 0.9398 0.2286 0 0.4064-0.2794 0.0889-0.0889 0.1524-0.0889 0.0508 0 0.127 0.0381l1.4224 0.6096q0.1397 0.0635 0.1397 0.1905 0 0.0508-0.0508 0.1524-0.4064 0.8128-1.1176 1.1557-0.7112 0.3556-1.4605 0.3556zm6.2992 0q-0.7747 0-1.4224-0.2794-0.635-0.2794-1.0922-0.7874-0.4572-0.5207-0.7112-1.2319t-0.254-1.5875 0.254-1.5875 0.7112-1.2192 1.0922-0.7874q0.6477-0.2794 1.4224-0.2794 0.7239 0 1.2827 0.2667t0.9652 0.7493l0.0254-0.6604q0-0.1016 0.0635-0.1524 0.0635-0.0635 0.1651-0.0635h1.7653q0.2286 0 0.2286 0.2159v7.0358q0 0.2286-0.2286 0.2286h-1.7653q-0.1016 0-0.1651-0.0635t-0.0635-0.1651l-0.0254-0.6604q-0.4064 0.4953-0.9652 0.762t-1.2827 0.2667zm0.6223-2.2225q0.6858 0 1.1049-0.4572 0.4318-0.4699 0.4318-1.2065t-0.4318-1.1938q-0.4191-0.4572-1.1049-0.4572t-1.1176 0.4572q-0.4191 0.4572-0.4191 1.1938t0.4191 1.2065q0.4318 0.4572 1.1176 0.4572zm10.008 2.2225q-0.7112 0-1.27-0.2667t-0.9652-0.762l-0.0254 0.6604q0 0.2286-0.2413 0.2286h-1.7653q-0.2286 0-0.2286-0.2286v-10.109q0-0.2286 0.2286-0.2286h2.0828q0.2286 0 0.2286 0.2286v3.4417q0.7874-0.7239 1.9558-0.7239 0.7874 0 1.4224 0.2794 0.6477 0.2794 1.1049 0.7874t0.6985 1.2192q0.254 0.7112 0.254 1.5875t-0.254 1.5875q-0.2413 0.7112-0.6985 1.2319-0.4572 0.508-1.1049 0.7874-0.635 0.2794-1.4224 0.2794zm-0.6223-2.2225q0.6858 0 1.1049-0.4572 0.4318-0.4699 0.4318-1.2065t-0.4318-1.1938q-0.4191-0.4572-1.1049-0.4572t-1.1176 0.4572q-0.4191 0.4572-0.4191 1.1938t0.4191 1.2065q0.4318 0.4572 1.1176 0.4572zm5.588 2.0828q-0.2286 0-0.2286-0.2286v-10.109q0-0.2286 0.2286-0.2286h2.0828q0.2286 0 0.2286 0.2286v10.109q0 0.2286-0.2286 0.2286zm7.493 0.1397q-0.889 0-1.6256-0.2921-0.7239-0.2794-1.2319-0.7874-0.508-0.5207-0.7874-1.2319t-0.2794-1.5748 0.2794-1.5748 0.7874-1.2192 1.2319-0.7874q0.7366-0.2921 1.6256-0.2921 0.9398 0 1.651 0.3175 0.7112 0.3175 1.1811 0.889 0.4699 0.5588 0.6858 1.3589 0.2286 0.7874 0.1778 1.7399-0.0254 0.2159-0.2413 0.2159h-4.8133q0.1397 0.5588 0.4826 0.8509 0.3556 0.2921 0.889 0.2921 0.8509 0 1.2319-0.5334 0.127-0.1397 0.3048-0.1016l1.8034 0.6096q0.1397 0.0635 0.1397 0.1651 0 0.0508-0.0381 0.127-0.254 0.4826-0.635 0.8255-0.3683 0.3429-0.8255 0.5588-0.4445 0.2286-0.9525 0.3302-0.508 0.1143-1.0414 0.1143zm1.2065-4.6228q-0.1016-0.5588-0.4191-0.8509-0.3175-0.3048-0.8255-0.3048-0.5334 0-0.8763 0.2921-0.3302 0.2921-0.4445 0.8636z" fill="url(#linearGradient2)" stroke-dashoffset="3404" stroke-linecap="round" stroke-linejoin="round" stroke-width="5.292" aria-label="Timetable"/>
</svg>
