<?xml version="1.0" encoding="UTF-8" standalone="no"?>
<!-- Created with Inkscape (http://www.inkscape.org/) -->

<svg
   width="1500"
   height="500"
   viewBox="0 0 396.87499 132.29167"
   version="1.1"
   id="svg1"
   inkscape:version="1.3.2 (091e20e, 2023-11-25, custom)"
   sodipodi:docname="appname-twitter-header.inkscape.svg"
   inkscape:export-filename="appname-twitter-header.inkscape.png"
   inkscape:export-xdpi="96"
   inkscape:export-ydpi="96"
   xmlns:inkscape="http://www.inkscape.org/namespaces/inkscape"
   xmlns:sodipodi="http://sodipodi.sourceforge.net/DTD/sodipodi-0.dtd"
   xmlns:xlink="http://www.w3.org/1999/xlink"
   xmlns="http://www.w3.org/2000/svg"
   xmlns:svg="http://www.w3.org/2000/svg">
  <sodipodi:namedview
     id="namedview1"
     pagecolor="#ffffff"
     bordercolor="#000000"
     borderopacity="0.25"
     inkscape:showpageshadow="2"
     inkscape:pageopacity="0.0"
     inkscape:pagecheckerboard="0"
     inkscape:deskcolor="#d1d1d1"
     inkscape:document-units="mm"
     inkscape:zoom="0.51213161"
     inkscape:cx="760.54669"
     inkscape:cy="55.649758"
     inkscape:window-width="1920"
     inkscape:window-height="1009"
     inkscape:window-x="-8"
     inkscape:window-y="-8"
     inkscape:window-maximized="1"
     inkscape:current-layer="layer1" />
  <defs
     id="defs1">
    <linearGradient
       inkscape:collect="always"
       xlink:href="#linearGradient1"
       id="linearGradient2"
       x1="106.31878"
       y1="65.408951"
       x2="289.45496"
       y2="66.442215"
       gradientUnits="userSpaceOnUse" />
    <linearGradient
       id="linearGradient1"
       inkscape:collect="always">
      <stop
         style="stop-color:#0086e9;stop-opacity:1;"
         offset="0"
         id="stop1" />
      <stop
         style="stop-color:#9900ff;stop-opacity:1;"
         offset="1"
         id="stop2" />
    </linearGradient>
  </defs>
  <g
     inkscape:label="Layer 1"
     inkscape:groupmode="layer"
     id="layer1">
    <rect
       style="fill:#1a1a1a;stroke-width:5.292;stroke-linecap:round;stroke-linejoin:round;stroke-dashoffset:3403.99"
       id="rect1"
       width="396.875"
       height="132.29167"
       x="0"
       y="0"
       rx="4.6496835"
       ry="4.6496835" />
    <path
       style="font-weight:800;font-size:12.7px;font-family:'LINE Seed JP_TTF';-inkscape-font-specification:'LINE Seed JP_TTF Ultra-Bold';text-align:center;text-anchor:middle;fill:url(#linearGradient2);stroke-width:5.292;stroke-linecap:round;stroke-linejoin:round;stroke-dashoffset:3403.99"
       d="m 104.92389,81.729247 q -0.61395,0 -0.61395,-0.650061 V 59.338247 h -8.450793 q -0.61395,0 -0.61395,-0.613946 v -5.742208 q 0,-0.650061 0.61395,-0.650061 h 24.341183 q 0.65006,0 0.65006,0.650061 v 5.742208 q 0,0.613946 -0.65006,0.613946 h -8.41468 v 21.740939 q 0,0.650061 -0.65006,0.650061 z m 19.86298,0 q -0.65006,0 -0.65006,-0.650061 V 61.071744 q 0,-0.613947 0.65006,-0.613947 h 5.92278 q 0.65006,0 0.65006,0.613947 v 20.007442 q 0,0.650061 -0.65006,0.650061 z m 2.96139,-24.088382 q -1.69738,0 -2.85304,-1.011206 -1.11955,-1.011207 -1.11955,-2.708589 0,-1.697382 1.11955,-2.708588 1.15566,-1.047321 2.85304,-1.047321 1.69738,0 2.81693,1.047321 1.15567,1.011206 1.15567,2.708588 0,1.697382 -1.15567,2.708589 -1.11955,1.011206 -2.81693,1.011206 z m 8.92032,24.088382 q -0.65006,0 -0.65006,-0.650061 V 61.071744 q 0,-0.613947 0.65006,-0.613947 h 5.05603 q 0.65006,0 0.65006,0.613947 l 0.10834,2.022413 q 1.15567,-1.552924 2.78082,-2.275214 1.66127,-0.758405 3.75591,-0.758405 2.27521,0 3.93648,0.830634 1.69738,0.830633 2.67248,2.419672 1.15566,-1.661268 2.88916,-2.455787 1.76961,-0.794519 3.97259,-0.794519 3.7198,0 5.7061,2.058527 2.02241,2.058527 2.02241,5.742208 v 13.217913 q 0,0.650061 -0.57783,0.650061 h -5.9589 q -0.28891,0 -0.46949,-0.180573 -0.18057,-0.180572 -0.18057,-0.469488 V 70.569862 q 0,-2.2391 -0.72229,-3.214192 -0.68617,-0.975092 -2.16687,-0.975092 -1.55292,0 -2.4919,1.191779 -0.90286,1.155664 -0.90286,3.503108 v 10.003721 q 0,0.650061 -0.65006,0.650061 h -5.92279 q -0.65006,0 -0.65006,-0.650061 V 70.569862 q 0,-2.2391 -0.68617,-3.214192 -0.68618,-0.975092 -2.20299,-0.975092 -1.51681,0 -2.45578,1.191779 -0.93898,1.155664 -0.93898,3.503108 v 10.003721 q 0,0.650061 -0.65006,0.650061 z m 48.14067,0.397259 q -2.52801,0 -4.62265,-0.830633 -2.05853,-0.79452 -3.50311,-2.2391 -1.44458,-1.480695 -2.2391,-3.503108 -0.79452,-2.022413 -0.79452,-4.4782 0,-2.455787 0.79452,-4.4782 0.79452,-2.022413 2.2391,-3.466993 1.44458,-1.444581 3.50311,-2.2391 2.09464,-0.830634 4.62265,-0.830634 2.67248,0 4.69489,0.902863 2.02241,0.902863 3.35865,2.528016 1.33624,1.589038 1.95018,3.864253 0.65007,2.2391 0.50561,4.947688 -0.0722,0.613947 -0.68618,0.613947 H 180.945 q 0.39726,1.589039 1.37235,2.419673 1.01121,0.830633 2.52802,0.830633 2.41967,0 3.50311,-1.516809 0.36114,-0.39726 0.86674,-0.288916 l 5.12827,1.733496 q 0.39725,0.180573 0.39725,0.469489 0,0.144458 -0.10834,0.361145 -0.72229,1.372352 -1.80572,2.347444 -1.04733,0.975092 -2.34745,1.589038 -1.26401,0.650062 -2.70859,0.938978 -1.44458,0.32503 -2.96139,0.32503 z m 3.43088,-13.145683 q -0.28891,-1.589039 -1.19178,-2.419673 -0.90286,-0.866748 -2.34744,-0.866748 -1.51681,0 -2.4919,0.830634 -0.93898,0.830634 -1.26401,2.455787 z m 19.28515,13.145683 q -4.04482,0 -5.88666,-2.383558 -1.84184,-2.419672 -1.84184,-7.04233 v -6.067239 h -2.52802 q -0.65006,0 -0.65006,-0.650061 v -4.80323 q 0,-0.288916 0.18057,-0.469489 0.18057,-0.180573 0.46949,-0.180573 h 2.52802 v -4.983803 q 0,-0.650061 0.65006,-0.650061 h 5.92278 q 0.65006,0 0.65006,0.650061 v 4.983803 h 4.2254 q 0.28891,0 0.46949,0.180573 0.18057,0.180573 0.18057,0.469489 v 4.80323 q 0,0.650061 -0.65006,0.650061 h -4.2254 v 6.753415 q 0,2.672474 1.58904,2.672474 0.65006,0 1.15566,-0.794519 0.2528,-0.252802 0.43338,-0.252802 0.14446,0 0.36114,0.108344 l 4.04483,1.733496 q 0.39726,0.180573 0.39726,0.541718 0,0.144458 -0.14446,0.433374 -1.15566,2.311329 -3.17808,3.286421 -2.02241,1.011206 -4.15317,1.011206 z m 17.91277,0 q -2.20298,0 -4.04482,-0.794519 -1.80573,-0.794519 -3.10585,-2.2391 -1.30012,-1.480695 -2.02241,-3.503108 -0.72229,-2.022413 -0.72229,-4.514314 0,-2.491902 0.72229,-4.514315 0.72229,-2.022412 2.02241,-3.466993 1.30012,-1.444581 3.10585,-2.2391 1.84184,-0.794519 4.04482,-0.794519 2.05853,0 3.64757,0.758405 1.58907,0.758404 2.74473,2.130756 l 0.0722,-1.877955 q 0,-0.288916 0.18057,-0.433374 0.18058,-0.180573 0.46949,-0.180573 h 5.01992 q 0.65006,0 0.65006,0.613947 v 20.007442 q 0,0.650061 -0.65006,0.650061 h -5.01989 q -0.28891,0 -0.46949,-0.180573 -0.18057,-0.180572 -0.18057,-0.469488 l -0.0722,-1.877955 q -1.15566,1.408466 -2.74473,2.166871 -1.58904,0.758404 -3.64757,0.758404 z m 1.76962,-6.32004 q 1.95018,0 3.14199,-1.300122 1.22789,-1.336237 1.22789,-3.430879 0,-2.094642 -1.22789,-3.394765 -1.19181,-1.300122 -3.14199,-1.300122 -1.95019,0 -3.17808,1.300122 -1.19178,1.300123 -1.19178,3.394765 0,2.094642 1.19178,3.430879 1.22789,1.300122 3.17808,1.300122 z m 28.45823,6.32004 q -2.02241,0 -3.61145,-0.758404 -1.58904,-0.758405 -2.7447,-2.166871 l -0.0722,1.877955 q 0,0.650061 -0.68618,0.650061 h -5.01991 q -0.65007,0 -0.65007,-0.650061 V 52.332032 q 0,-0.650062 0.65007,-0.650062 h 5.92278 q 0.65006,0 0.65006,0.650062 v 9.787033 q 2.2391,-2.058527 5.56163,-2.058527 2.2391,0 4.04483,0.794519 1.84184,0.794519 3.14196,2.2391 1.30012,1.444581 1.9863,3.466993 0.72229,2.022413 0.72229,4.514315 0,2.491901 -0.72229,4.514314 -0.68618,2.022413 -1.9863,3.503108 -1.30012,1.444581 -3.14196,2.2391 -1.80573,0.794519 -4.04483,0.794519 z m -1.76961,-6.32004 q 1.95019,0 3.14196,-1.300122 1.2279,-1.336237 1.2279,-3.430879 0,-2.094642 -1.2279,-3.394765 -1.19177,-1.300122 -3.14196,-1.300122 -1.95018,0 -3.17808,1.300122 -1.19177,1.300123 -1.19177,3.394765 0,2.094642 1.19177,3.430879 1.2279,1.300122 3.17808,1.300122 z m 15.89036,5.922781 q -0.65006,0 -0.65006,-0.650061 V 52.332032 q 0,-0.650062 0.65006,-0.650062 h 5.92278 q 0.65006,0 0.65006,0.650062 v 28.747154 q 0,0.650061 -0.65006,0.650061 z m 21.30756,0.397259 q -2.52801,0 -4.62265,-0.830633 -2.05853,-0.79452 -3.50311,-2.2391 -1.44458,-1.480695 -2.2391,-3.503108 -0.79452,-2.022413 -0.79452,-4.4782 0,-2.455787 0.79452,-4.4782 0.79452,-2.022413 2.2391,-3.466993 1.44458,-1.444581 3.50311,-2.2391 2.09464,-0.830634 4.62265,-0.830634 2.67248,0 4.69489,0.902863 2.02241,0.902863 3.35865,2.528016 1.33624,1.589038 1.95018,3.864253 0.65007,2.2391 0.50561,4.947688 -0.0722,0.613947 -0.68618,0.613947 h -13.6874 q 0.39726,1.589039 1.37235,2.419673 1.01121,0.830633 2.52802,0.830633 2.41967,0 3.50311,-1.516809 0.36114,-0.39726 0.86674,-0.288916 l 5.12827,1.733496 q 0.39726,0.180573 0.39726,0.469489 0,0.144458 -0.10835,0.361145 -0.72229,1.372352 -1.80572,2.347444 -1.04732,0.975092 -2.34745,1.589038 -1.26401,0.650062 -2.70859,0.938978 -1.44458,0.32503 -2.96139,0.32503 z m 3.43088,-13.145683 q -0.28891,-1.589039 -1.19178,-2.419673 -0.90286,-0.866748 -2.34744,-0.866748 -1.51681,0 -2.4919,0.830634 -0.93898,0.830634 -1.26401,2.455787 z"
       id="text1"
       aria-label="Timetable" />
  </g>
</svg>
