<?xml version="1.0" encoding="UTF-8" standalone="no"?>
<!-- Created with Inkscape (http://www.inkscape.org/) -->

<svg
   width="512"
   height="512"
   viewBox="0 0 135.46666 135.46667"
   version="1.1"
   id="svg1"
   inkscape:version="1.3.2 (091e20e, 2023-11-25, custom)"
   sodipodi:docname="icon-inkscape.svg"
   xmlns:inkscape="http://www.inkscape.org/namespaces/inkscape"
   xmlns:sodipodi="http://sodipodi.sourceforge.net/DTD/sodipodi-0.dtd"
   xmlns:xlink="http://www.w3.org/1999/xlink"
   xmlns="http://www.w3.org/2000/svg"
   xmlns:svg="http://www.w3.org/2000/svg">
  <sodipodi:namedview
     id="namedview1"
     pagecolor="#ffffff"
     bordercolor="#000000"
     borderopacity="0.25"
     inkscape:showpageshadow="2"
     inkscape:pageopacity="0.0"
     inkscape:pagecheckerboard="true"
     inkscape:deskcolor="#d1d1d1"
     inkscape:document-units="mm"
     inkscape:zoom="1.0242632"
     inkscape:cx="230.89768"
     inkscape:cy="204.53727"
     inkscape:window-width="1920"
     inkscape:window-height="1009"
     inkscape:window-x="-8"
     inkscape:window-y="-8"
     inkscape:window-maximized="1"
     inkscape:current-layer="layer1" />
  <defs
     id="defs1">
    <linearGradient
       id="linearGradient1"
       inkscape:collect="always">
      <stop
         style="stop-color:#0086e9;stop-opacity:1;"
         offset="0"
         id="stop2" />
      <stop
         style="stop-color:#9900ff;stop-opacity:1;"
         offset="1"
         id="stop1" />
    </linearGradient>
    <linearGradient
       inkscape:collect="always"
       xlink:href="#linearGradient1"
       id="linearGradient2"
       x1="18.843234"
       y1="67.733335"
       x2="116.62344"
       y2="67.733335"
       gradientUnits="userSpaceOnUse" />
  </defs>
  <g
     inkscape:label="Layer 1"
     inkscape:groupmode="layer"
     id="layer1">
    <rect
       style="fill:#f2f2f2;stroke-width:5.29201;stroke-linecap:round;stroke-linejoin:round;stroke-dashoffset:3403.99"
       id="rect1"
       width="135.46666"
       height="135.46666"
       x="0"
       y="0"
       rx="24.798319"
       ry="24.798319" />
    <path
       style="font-weight:800;font-size:35.2777px;font-family:'LINE Seed JP_TTF';-inkscape-font-specification:'LINE Seed JP_TTF Ultra-Bold';text-align:center;text-anchor:middle;fill:url(#linearGradient2);stroke-width:5.29201;stroke-linecap:round;stroke-linejoin:round;stroke-dashoffset:3403.99"
       d="m 25.411567,81.423865 q -0.64361,0 -0.64361,-0.681469 V 57.950985 h -8.85912 q -0.643612,0 -0.643612,-0.643612 v -6.019659 q 0,-0.681469 0.643612,-0.681469 H 41.42613 q 0.68147,0 0.68147,0.681469 v 6.019659 q 0,0.643612 -0.68147,0.643612 h -8.821261 v 22.791411 q 0,0.681469 -0.681469,0.681469 z m 20.822725,0 q -0.68147,0 -0.68147,-0.681469 V 59.76824 q 0,-0.643611 0.68147,-0.643611 h 6.208957 q 0.68147,0 0.68147,0.643611 v 20.974156 q 0,0.681469 -0.68147,0.681469 z m 3.104479,-25.252276 q -1.779396,0 -2.9909,-1.060065 -1.173643,-1.060066 -1.173643,-2.839463 0,-1.779394 1.173643,-2.839461 1.211504,-1.097924 2.9909,-1.097924 1.779395,0 2.95304,1.097924 1.211503,1.060067 1.211503,2.839461 0,1.779397 -1.211503,2.839463 -1.173645,1.060065 -2.95304,1.060065 z m 9.351312,25.252276 q -0.681472,0 -0.681472,-0.681469 V 59.76824 q 0,-0.643611 0.681472,-0.643611 h 5.300328 q 0.68147,0 0.68147,0.643611 l 0.113578,2.120131 q 1.211504,-1.627958 2.915181,-2.385147 1.741536,-0.79505 3.937387,-0.79505 2.385147,0 4.126683,0.870769 1.779397,0.870767 2.801603,2.536585 1.211503,-1.741535 3.028758,-2.574445 1.855118,-0.832909 4.16454,-0.832909 3.899532,0 5.981803,2.157992 2.120134,2.15799 2.120134,6.019657 v 13.856573 q 0,0.681469 -0.605756,0.681469 h -6.246815 q -0.302874,0 -0.49217,-0.189297 -0.189303,-0.189298 -0.189303,-0.492172 V 69.725284 q 0,-2.347288 -0.757189,-3.369493 -0.719327,-1.022207 -2.271567,-1.022207 -1.627957,0 -2.612304,1.249363 -0.946488,1.211505 -0.946488,3.672371 v 10.487078 q 0,0.681469 -0.68147,0.681469 H 72.84953 q -0.681471,0 -0.681471,-0.681469 V 69.725284 q 0,-2.347288 -0.719331,-3.369493 -0.71933,-1.022207 -2.309427,-1.022207 -1.590099,0 -2.574445,1.249363 -0.984347,1.211505 -0.984347,3.672371 v 10.487078 q 0,0.681469 -0.681471,0.681469 z M 109.1568,81.84032 q -2.65016,0 -4.84602,-0.870768 -2.15798,-0.832909 -3.67237,-2.347287 -1.514376,-1.55224 -2.347289,-3.672371 -0.832903,-2.12013 -0.832903,-4.694576 0,-2.574446 0.832903,-4.694576 0.832913,-2.120131 2.347289,-3.634511 1.51439,-1.514379 3.67237,-2.347288 2.19586,-0.870769 4.84602,-0.870769 2.8016,0 4.92173,0.946489 2.12013,0.946486 3.52094,2.650164 1.4008,1.665816 2.0444,4.050964 0.68148,2.347288 0.53004,5.18675 -0.0758,0.643611 -0.71933,0.643611 h -14.34873 q 0.41644,1.665818 1.43865,2.536585 1.06007,0.870768 2.65017,0.870768 2.53657,0 3.67236,-1.590099 0.37859,-0.416453 0.90863,-0.302875 l 5.37604,1.817254 q 0.41646,0.189299 0.41646,0.492173 0,0.151439 -0.11358,0.378596 -0.75718,1.438661 -1.89297,2.460867 -1.09792,1.022206 -2.46087,1.665818 -1.32508,0.68147 -2.83946,0.984346 -1.51439,0.340735 -3.10448,0.340735 z m 3.59665,-13.780852 q -0.30287,-1.665818 -1.24936,-2.536586 -0.94649,-0.908628 -2.46086,-0.908628 -1.59011,0 -2.61231,0.870768 -0.98435,0.870769 -1.32507,2.574446 z"
       id="text1"
       aria-label="Time" />
  </g>
</svg>
