<?xml version="1.0" encoding="UTF-8"?>
<!-- Created with Inkscape (http://www.inkscape.org/) -->
<svg width="512" height="512" version="1.1" viewBox="0 0 135.47 135.47" xmlns="http://www.w3.org/2000/svg" xmlns:xlink="http://www.w3.org/1999/xlink">
 <defs>
  <linearGradient id="linearGradient2" x1="18.843" x2="116.62" y1="67.733" y2="67.733" gradientUnits="userSpaceOnUse">
   <stop stop-color="#0086e9" offset="0"/>
   <stop stop-color="#90f" offset="1"/>
  </linearGradient>
 </defs>
 <g stroke-dashoffset="3404" stroke-linecap="round" stroke-linejoin="round" stroke-width="5.292">
  <rect width="135.47" height="135.47" rx="24.798" ry="24.798" fill="#f2f2f2"/>
  <path d="m25.412 81.424q-0.64361 0-0.64361-0.68147v-22.791h-8.8591q-0.64361 0-0.64361-0.64361v-6.0197q0-0.68147 0.64361-0.68147h25.517q0.68147 0 0.68147 0.68147v6.0197q0 0.64361-0.68147 0.64361h-8.8213v22.791q0 0.68147-0.68147 0.68147zm20.823 0q-0.68147 0-0.68147-0.68147v-20.974q0-0.64361 0.68147-0.64361h6.209q0.68147 0 0.68147 0.64361v20.974q0 0.68147-0.68147 0.68147zm3.1045-25.252q-1.7794 0-2.9909-1.0601-1.1736-1.0601-1.1736-2.8395 0-1.7794 1.1736-2.8395 1.2115-1.0979 2.9909-1.0979 1.7794 0 2.953 1.0979 1.2115 1.0601 1.2115 2.8395 0 1.7794-1.2115 2.8395-1.1736 1.0601-2.953 1.0601zm9.3513 25.252q-0.68147 0-0.68147-0.68147v-20.974q0-0.64361 0.68147-0.64361h5.3003q0.68147 0 0.68147 0.64361l0.11358 2.1201q1.2115-1.628 2.9152-2.3851 1.7415-0.79505 3.9374-0.79505 2.3851 0 4.1267 0.87077 1.7794 0.87077 2.8016 2.5366 1.2115-1.7415 3.0288-2.5744 1.8551-0.83291 4.1645-0.83291 3.8995 0 5.9818 2.158 2.1201 2.158 2.1201 6.0197v13.857q0 0.68147-0.60576 0.68147h-6.2468q-0.30287 0-0.49217-0.1893-0.1893-0.1893-0.1893-0.49217v-11.017q0-2.3473-0.75719-3.3695-0.71933-1.0222-2.2716-1.0222-1.628 0-2.6123 1.2494-0.94649 1.2115-0.94649 3.6724v10.487q0 0.68147-0.68147 0.68147h-6.209q-0.68147 0-0.68147-0.68147v-11.017q0-2.3473-0.71933-3.3695-0.71933-1.0222-2.3094-1.0222-1.5901 0-2.5744 1.2494-0.98435 1.2115-0.98435 3.6724v10.487q0 0.68147-0.68147 0.68147zm50.467 0.41646q-2.6502 0-4.846-0.87077-2.158-0.83291-3.6724-2.3473-1.5144-1.5522-2.3473-3.6724-0.8329-2.1201-0.8329-4.6946t0.8329-4.6946q0.83291-2.1201 2.3473-3.6345 1.5144-1.5144 3.6724-2.3473 2.1959-0.87077 4.846-0.87077 2.8016 0 4.9217 0.94649 2.1201 0.94649 3.5209 2.6502 1.4008 1.6658 2.0444 4.051 0.68148 2.3473 0.53004 5.1868-0.0758 0.64361-0.71933 0.64361h-14.349q0.41644 1.6658 1.4386 2.5366 1.0601 0.87077 2.6502 0.87077 2.5366 0 3.6724-1.5901 0.37859-0.41645 0.90863-0.30288l5.376 1.8173q0.41646 0.1893 0.41646 0.49217 0 0.15144-0.11358 0.3786-0.75718 1.4387-1.893 2.4609-1.0979 1.0222-2.4609 1.6658-1.3251 0.68147-2.8395 0.98435-1.5144 0.34074-3.1045 0.34074zm3.5966-13.781q-0.30287-1.6658-1.2494-2.5366-0.94649-0.90863-2.4609-0.90863-1.5901 0-2.6123 0.87077-0.98435 0.87077-1.3251 2.5744z" fill="url(#linearGradient2)" aria-label="Time"/>
 </g>
</svg>
